<svg xmlns="http://www.w3.org/2000/svg" xmlns:xlink="http://www.w3.org/1999/xlink" width="260" zoomAndPan="magnify" viewBox="0 0 571.5 110.999996" height="64" preserveAspectRatio="xMidYMid meet" version="1.0"><defs><g/><clipPath id="01da295f91"><path d="M 3 15.792969 L 111 15.792969 L 111 109.503906 L 3 109.503906 Z M 3 15.792969 " clip-rule="nonzero"/></clipPath></defs><g clip-path="url(#01da295f91)"><path fill="#ec6a06" d="M 67.46875 62.722656 L 45.777344 38.683594 L 71.933594 15.792969 L 8.101562 15.792969 C 5.578125 15.792969 3.53125 17.84375 3.53125 20.371094 L 3.53125 84.472656 C 3.53125 87 5.578125 89.050781 8.101562 89.050781 L 17.234375 89.050781 L 17.234375 109.652344 L 37.785156 89.050781 L 106.285156 89.050781 C 108.804688 89.050781 110.851562 87 110.851562 84.472656 L 110.851562 21.25 Z M 33.214844 73.410156 L 42.921875 40.976562 L 65.042969 65.585938 Z M 33.214844 73.410156 " fill-opacity="1" fill-rule="nonzero"/></g><g fill="#ede0db" fill-opacity="1"><g transform="translate(124.147695, 77.944252)"><g><path d="M 4.953125 13.921875 L 4.953125 -34.375 L 13.578125 -34.375 L 13.578125 -29.875 L 14.234375 -29.75 C 15.253906 -31.5 16.613281 -32.8125 18.3125 -33.6875 C 20.019531 -34.570312 22.015625 -35.015625 24.296875 -35.015625 C 27.066406 -35.015625 29.484375 -34.359375 31.546875 -33.046875 C 33.609375 -31.742188 35.21875 -29.757812 36.375 -27.09375 C 37.53125 -24.425781 38.109375 -21.117188 38.109375 -17.171875 C 38.109375 -13.242188 37.5 -9.945312 36.28125 -7.28125 C 35.070312 -4.625 33.382812 -2.632812 31.21875 -1.3125 C 29.0625 0 26.570312 0.65625 23.75 0.65625 C 21.601562 0.65625 19.75 0.296875 18.1875 -0.421875 C 16.632812 -1.140625 15.316406 -2.253906 14.234375 -3.765625 L 13.578125 -3.640625 L 13.578125 13.921875 Z M 21.34375 -6.671875 C 23.914062 -6.671875 25.867188 -7.507812 27.203125 -9.1875 C 28.535156 -10.875 29.203125 -13.535156 29.203125 -17.171875 C 29.203125 -20.804688 28.535156 -23.46875 27.203125 -25.15625 C 25.867188 -26.851562 23.914062 -27.703125 21.34375 -27.703125 C 18.9375 -27.703125 17.023438 -26.828125 15.609375 -25.078125 C 14.191406 -23.335938 13.484375 -20.703125 13.484375 -17.171875 C 13.484375 -13.660156 14.191406 -11.03125 15.609375 -9.28125 C 17.023438 -7.539062 18.9375 -6.671875 21.34375 -6.671875 Z M 21.34375 -6.671875 "/></g></g></g><g fill="#ede0db" fill-opacity="1"><g transform="translate(165.305175, 77.944252)"><g><path d="M 33.96875 -15.234375 L 11.875 -15.234375 C 12.125 -12.242188 12.972656 -10.066406 14.421875 -8.703125 C 15.878906 -7.347656 17.863281 -6.671875 20.375 -6.671875 C 22.351562 -6.671875 23.953125 -7.035156 25.171875 -7.765625 C 26.398438 -8.503906 27.390625 -9.625 28.140625 -11.125 L 28.796875 -11.125 L 34.53125 -7.453125 C 33.40625 -5.035156 31.707031 -3.078125 29.4375 -1.578125 C 27.175781 -0.0859375 24.15625 0.65625 20.375 0.65625 C 16.820312 0.65625 13.753906 -0.015625 11.171875 -1.359375 C 8.585938 -2.710938 6.59375 -4.722656 5.1875 -7.390625 C 3.78125 -10.066406 3.078125 -13.328125 3.078125 -17.171875 C 3.078125 -21.078125 3.816406 -24.367188 5.296875 -27.046875 C 6.773438 -29.722656 8.769531 -31.71875 11.28125 -33.03125 C 13.789062 -34.351562 16.613281 -35.015625 19.75 -35.015625 C 24.613281 -35.015625 28.335938 -33.726562 30.921875 -31.15625 C 33.503906 -28.582031 34.796875 -24.800781 34.796875 -19.8125 C 34.796875 -18.007812 34.734375 -16.609375 34.609375 -15.609375 Z M 26.546875 -20.8125 C 26.460938 -23.425781 25.851562 -25.332031 24.71875 -26.53125 C 23.59375 -27.726562 21.9375 -28.328125 19.75 -28.328125 C 15.394531 -28.328125 12.832031 -25.820312 12.0625 -20.8125 Z M 26.546875 -20.8125 "/></g></g></g><g fill="#ede0db" fill-opacity="1"><g transform="translate(202.661585, 77.944252)"><g><path d="M 4.953125 0 L 4.953125 -34.375 L 13.328125 -34.375 L 13.328125 -29.25 L 13.984375 -29.140625 C 14.816406 -31.046875 15.90625 -32.441406 17.25 -33.328125 C 18.601562 -34.222656 20.25 -34.671875 22.1875 -34.671875 C 24.132812 -34.671875 25.617188 -34.34375 26.640625 -33.6875 L 25.171875 -26.234375 L 24.515625 -26.109375 C 23.960938 -26.335938 23.425781 -26.503906 22.90625 -26.609375 C 22.382812 -26.710938 21.75 -26.765625 21 -26.765625 C 18.59375 -26.765625 16.753906 -25.914062 15.484375 -24.21875 C 14.210938 -22.53125 13.578125 -19.816406 13.578125 -16.078125 L 13.578125 0 Z M 4.953125 0 "/></g></g></g><g fill="#ede0db" fill-opacity="1"><g transform="translate(229.61179, 77.944252)"><g><path d="M 16.078125 0.65625 C 13.734375 0.65625 11.582031 0.378906 9.625 -0.171875 C 7.675781 -0.722656 6.007812 -1.476562 4.625 -2.4375 C 3.25 -3.40625 2.226562 -4.515625 1.5625 -5.765625 L 6.359375 -10.9375 L 7.015625 -10.9375 C 8.148438 -9.394531 9.492188 -8.238281 11.046875 -7.46875 C 12.609375 -6.707031 14.304688 -6.328125 16.140625 -6.328125 C 17.816406 -6.328125 19.082031 -6.625 19.9375 -7.21875 C 20.789062 -7.820312 21.21875 -8.6875 21.21875 -9.8125 C 21.21875 -10.6875 20.910156 -11.421875 20.296875 -12.015625 C 19.679688 -12.609375 18.691406 -13.066406 17.328125 -13.390625 L 12.78125 -14.484375 C 9.375 -15.296875 6.882812 -16.535156 5.3125 -18.203125 C 3.738281 -19.878906 2.953125 -22.003906 2.953125 -24.578125 C 2.953125 -26.722656 3.5 -28.582031 4.59375 -30.15625 C 5.6875 -31.738281 7.222656 -32.941406 9.203125 -33.765625 C 11.191406 -34.597656 13.503906 -35.015625 16.140625 -35.015625 C 19.234375 -35.015625 21.796875 -34.566406 23.828125 -33.671875 C 25.867188 -32.785156 27.460938 -31.59375 28.609375 -30.09375 L 23.984375 -25.109375 L 23.375 -25.109375 C 22.414062 -26.191406 21.335938 -26.984375 20.140625 -27.484375 C 18.953125 -27.984375 17.617188 -28.234375 16.140625 -28.234375 C 12.734375 -28.234375 11.03125 -27.171875 11.03125 -25.046875 C 11.03125 -24.160156 11.347656 -23.4375 11.984375 -22.875 C 12.617188 -22.3125 13.734375 -21.851562 15.328125 -21.5 L 19.5625 -20.5625 C 23.050781 -19.8125 25.597656 -18.609375 27.203125 -16.953125 C 28.816406 -15.304688 29.625 -13.09375 29.625 -10.3125 C 29.625 -8.132812 29.082031 -6.210938 28 -4.546875 C 26.925781 -2.890625 25.367188 -1.609375 23.328125 -0.703125 C 21.296875 0.203125 18.878906 0.65625 16.078125 0.65625 Z M 16.078125 0.65625 "/></g></g></g><g fill="#ede0db" fill-opacity="1"><g transform="translate(261.297753, 77.944252)"><g><path d="M 19.96875 0.65625 C 16.601562 0.65625 13.648438 -0.03125 11.109375 -1.40625 C 8.566406 -2.789062 6.59375 -4.816406 5.1875 -7.484375 C 3.78125 -10.160156 3.078125 -13.390625 3.078125 -17.171875 C 3.078125 -20.953125 3.78125 -24.179688 5.1875 -26.859375 C 6.59375 -29.535156 8.566406 -31.5625 11.109375 -32.9375 C 13.648438 -34.320312 16.601562 -35.015625 19.96875 -35.015625 C 23.332031 -35.015625 26.285156 -34.320312 28.828125 -32.9375 C 31.378906 -31.5625 33.359375 -29.535156 34.765625 -26.859375 C 36.179688 -24.179688 36.890625 -20.953125 36.890625 -17.171875 C 36.890625 -13.390625 36.179688 -10.160156 34.765625 -7.484375 C 33.359375 -4.816406 31.378906 -2.789062 28.828125 -1.40625 C 26.285156 -0.03125 23.332031 0.65625 19.96875 0.65625 Z M 19.96875 -6.671875 C 25.3125 -6.671875 27.984375 -10.171875 27.984375 -17.171875 C 27.984375 -20.804688 27.296875 -23.46875 25.921875 -25.15625 C 24.554688 -26.851562 22.570312 -27.703125 19.96875 -27.703125 C 14.632812 -27.703125 11.96875 -24.191406 11.96875 -17.171875 C 11.96875 -10.171875 14.632812 -6.671875 19.96875 -6.671875 Z M 19.96875 -6.671875 "/></g></g></g><g fill="#ede0db" fill-opacity="1"><g transform="translate(301.240137, 77.944252)"><g><path d="M 4.953125 0 L 4.953125 -34.375 L 13.25 -34.375 L 13.25 -29.3125 L 13.890625 -29.171875 C 16.035156 -33.066406 19.503906 -35.015625 24.296875 -35.015625 C 28.265625 -35.015625 31.175781 -33.9375 33.03125 -31.78125 C 34.894531 -29.625 35.828125 -26.476562 35.828125 -22.34375 L 35.828125 0 L 27.203125 0 L 27.203125 -21.28125 C 27.203125 -23.5625 26.742188 -25.207031 25.828125 -26.21875 C 24.910156 -27.226562 23.445312 -27.734375 21.4375 -27.734375 C 18.96875 -27.734375 17.039062 -26.929688 15.65625 -25.328125 C 14.269531 -23.734375 13.578125 -21.222656 13.578125 -17.796875 L 13.578125 0 Z M 4.953125 0 "/></g></g></g><g fill="#ede0db" fill-opacity="1"><g transform="translate(341.494084, 77.944252)"><g><path d="M 13.390625 0.65625 C 11.191406 0.65625 9.28125 0.25 7.65625 -0.5625 C 6.039062 -1.375 4.796875 -2.5625 3.921875 -4.125 C 3.054688 -5.695312 2.625 -7.582031 2.625 -9.78125 C 2.625 -11.820312 3.054688 -13.53125 3.921875 -14.90625 C 4.796875 -16.289062 6.144531 -17.421875 7.96875 -18.296875 C 9.800781 -19.179688 12.191406 -19.863281 15.140625 -20.34375 C 17.203125 -20.675781 18.765625 -21.039062 19.828125 -21.4375 C 20.898438 -21.832031 21.625 -22.28125 22 -22.78125 C 22.375 -23.28125 22.5625 -23.910156 22.5625 -24.671875 C 22.5625 -25.773438 22.175781 -26.617188 21.40625 -27.203125 C 20.632812 -27.785156 19.359375 -28.078125 17.578125 -28.078125 C 15.660156 -28.078125 13.835938 -27.648438 12.109375 -26.796875 C 10.390625 -25.941406 8.898438 -24.820312 7.640625 -23.4375 L 7.015625 -23.4375 L 3.390625 -28.890625 C 5.140625 -30.816406 7.269531 -32.316406 9.78125 -33.390625 C 12.289062 -34.472656 15.035156 -35.015625 18.015625 -35.015625 C 22.554688 -35.015625 25.84375 -34.050781 27.875 -32.125 C 29.914062 -30.195312 30.9375 -27.457031 30.9375 -23.90625 L 30.9375 -8.96875 C 30.9375 -7.4375 31.613281 -6.671875 32.96875 -6.671875 C 33.488281 -6.671875 34 -6.765625 34.5 -6.953125 L 34.921875 -6.828125 L 35.546875 -0.8125 C 35.066406 -0.5 34.398438 -0.242188 33.546875 -0.046875 C 32.703125 0.148438 31.769531 0.25 30.75 0.25 C 28.695312 0.25 27.09375 -0.144531 25.9375 -0.9375 C 24.78125 -1.726562 23.957031 -2.960938 23.46875 -4.640625 L 22.8125 -4.703125 C 21.125 -1.128906 17.984375 0.65625 13.390625 0.65625 Z M 16.140625 -5.796875 C 18.128906 -5.796875 19.722656 -6.460938 20.921875 -7.796875 C 22.117188 -9.140625 22.71875 -11.003906 22.71875 -13.390625 L 22.71875 -16.890625 L 22.125 -17.015625 C 21.601562 -16.597656 20.921875 -16.25 20.078125 -15.96875 C 19.234375 -15.6875 18.023438 -15.410156 16.453125 -15.140625 C 14.578125 -14.828125 13.226562 -14.289062 12.40625 -13.53125 C 11.59375 -12.78125 11.1875 -11.707031 11.1875 -10.3125 C 11.1875 -8.832031 11.617188 -7.707031 12.484375 -6.9375 C 13.359375 -6.175781 14.578125 -5.796875 16.140625 -5.796875 Z M 16.140625 -5.796875 "/></g></g></g><g fill="#ede0db" fill-opacity="1"><g transform="translate(377.728879, 77.944252)"><g><path d="M 14.265625 0.65625 C 11.171875 0.65625 8.804688 -0.175781 7.171875 -1.84375 C 5.546875 -3.519531 4.734375 -6.0625 4.734375 -9.46875 L 4.734375 -48.171875 L 13.359375 -48.171875 L 13.359375 -9.8125 C 13.359375 -7.71875 14.234375 -6.671875 15.984375 -6.671875 C 16.484375 -6.671875 17.015625 -6.753906 17.578125 -6.921875 L 18.015625 -6.796875 L 18.78125 -0.15625 C 18.3125 0.09375 17.679688 0.289062 16.890625 0.4375 C 16.097656 0.582031 15.222656 0.65625 14.265625 0.65625 Z M 14.265625 0.65625 "/></g></g></g><g fill="#ede0db" fill-opacity="1"><g transform="translate(397.481976, 77.944252)"><g/></g></g><g fill="#ede0db" fill-opacity="1"><g transform="translate(412.53046, 77.944252)"><g><path d="M 24.015625 0.65625 C 19.640625 0.65625 16.378906 -0.984375 14.234375 -4.265625 L 13.578125 -4.140625 L 13.578125 0 L 4.953125 0 L 4.953125 -48.171875 L 13.578125 -48.171875 L 13.578125 -30.3125 L 14.234375 -30.1875 C 15.421875 -31.832031 16.816406 -33.046875 18.421875 -33.828125 C 20.035156 -34.617188 21.960938 -35.015625 24.203125 -35.015625 C 26.992188 -35.015625 29.425781 -34.359375 31.5 -33.046875 C 33.570312 -31.742188 35.191406 -29.757812 36.359375 -27.09375 C 37.523438 -24.425781 38.109375 -21.117188 38.109375 -17.171875 C 38.109375 -13.265625 37.503906 -9.972656 36.296875 -7.296875 C 35.097656 -4.628906 33.4375 -2.632812 31.3125 -1.3125 C 29.195312 0 26.765625 0.65625 24.015625 0.65625 Z M 21.40625 -6.671875 C 23.9375 -6.671875 25.867188 -7.515625 27.203125 -9.203125 C 28.535156 -10.898438 29.203125 -13.554688 29.203125 -17.171875 C 29.203125 -20.804688 28.535156 -23.46875 27.203125 -25.15625 C 25.867188 -26.851562 23.9375 -27.703125 21.40625 -27.703125 C 18.976562 -27.703125 17.050781 -26.828125 15.625 -25.078125 C 14.195312 -23.335938 13.484375 -20.703125 13.484375 -17.171875 C 13.484375 -13.640625 14.195312 -11.003906 15.625 -9.265625 C 17.050781 -7.535156 18.976562 -6.671875 21.40625 -6.671875 Z M 21.40625 -6.671875 "/></g></g></g><g fill="#ede0db" fill-opacity="1"><g transform="translate(453.687929, 77.944252)"><g><path d="M 14.265625 0.65625 C 11.171875 0.65625 8.804688 -0.175781 7.171875 -1.84375 C 5.546875 -3.519531 4.734375 -6.0625 4.734375 -9.46875 L 4.734375 -48.171875 L 13.359375 -48.171875 L 13.359375 -9.8125 C 13.359375 -7.71875 14.234375 -6.671875 15.984375 -6.671875 C 16.484375 -6.671875 17.015625 -6.753906 17.578125 -6.921875 L 18.015625 -6.796875 L 18.78125 -0.15625 C 18.3125 0.09375 17.679688 0.289062 16.890625 0.4375 C 16.097656 0.582031 15.222656 0.65625 14.265625 0.65625 Z M 14.265625 0.65625 "/></g></g></g><g fill="#ede0db" fill-opacity="1"><g transform="translate(473.441027, 77.944252)"><g><path d="M 19.96875 0.65625 C 16.601562 0.65625 13.648438 -0.03125 11.109375 -1.40625 C 8.566406 -2.789062 6.59375 -4.816406 5.1875 -7.484375 C 3.78125 -10.160156 3.078125 -13.390625 3.078125 -17.171875 C 3.078125 -20.953125 3.78125 -24.179688 5.1875 -26.859375 C 6.59375 -29.535156 8.566406 -31.5625 11.109375 -32.9375 C 13.648438 -34.320312 16.601562 -35.015625 19.96875 -35.015625 C 23.332031 -35.015625 26.285156 -34.320312 28.828125 -32.9375 C 31.378906 -31.5625 33.359375 -29.535156 34.765625 -26.859375 C 36.179688 -24.179688 36.890625 -20.953125 36.890625 -17.171875 C 36.890625 -13.390625 36.179688 -10.160156 34.765625 -7.484375 C 33.359375 -4.816406 31.378906 -2.789062 28.828125 -1.40625 C 26.285156 -0.03125 23.332031 0.65625 19.96875 0.65625 Z M 19.96875 -6.671875 C 25.3125 -6.671875 27.984375 -10.171875 27.984375 -17.171875 C 27.984375 -20.804688 27.296875 -23.46875 25.921875 -25.15625 C 24.554688 -26.851562 22.570312 -27.703125 19.96875 -27.703125 C 14.632812 -27.703125 11.96875 -24.191406 11.96875 -17.171875 C 11.96875 -10.171875 14.632812 -6.671875 19.96875 -6.671875 Z M 19.96875 -6.671875 "/></g></g></g><g fill="#ede0db" fill-opacity="1"><g transform="translate(513.383411, 77.944252)"><g><path d="M 17.828125 14.578125 C 12.148438 14.578125 7.960938 13.742188 5.265625 12.078125 C 2.566406 10.421875 1.21875 8.109375 1.21875 5.140625 C 1.21875 3.335938 1.789062 1.859375 2.9375 0.703125 C 4.09375 -0.453125 5.753906 -1.226562 7.921875 -1.625 L 7.921875 -2.28125 C 6.753906 -2.976562 5.914062 -3.757812 5.40625 -4.625 C 4.894531 -5.488281 4.640625 -6.492188 4.640625 -7.640625 C 4.640625 -10.398438 6.4375 -12.257812 10.03125 -13.21875 L 10.03125 -13.859375 C 8.1875 -14.921875 6.796875 -16.234375 5.859375 -17.796875 C 4.921875 -19.367188 4.453125 -21.269531 4.453125 -23.5 C 4.453125 -25.78125 4.976562 -27.785156 6.03125 -29.515625 C 7.082031 -31.253906 8.617188 -32.601562 10.640625 -33.5625 C 12.660156 -34.53125 15.085938 -35.015625 17.921875 -35.015625 C 20.785156 -35.015625 23.066406 -34.519531 24.765625 -33.53125 C 25.828125 -35.0625 26.441406 -36.835938 26.609375 -38.859375 L 27.265625 -39.265625 L 33.46875 -37.734375 C 33.28125 -36.085938 32.800781 -34.707031 32.03125 -33.59375 C 31.257812 -32.488281 30.066406 -31.5 28.453125 -30.625 L 28.453125 -29.9375 C 30.378906 -28.238281 31.34375 -25.863281 31.34375 -22.8125 C 31.34375 -20.6875 30.8125 -18.78125 29.75 -17.09375 C 28.695312 -15.414062 27.15625 -14.085938 25.125 -13.109375 C 23.101562 -12.140625 20.703125 -11.65625 17.921875 -11.65625 L 16.609375 -11.6875 C 15.773438 -11.726562 15.191406 -11.75 14.859375 -11.75 C 14.066406 -11.75 13.445312 -11.535156 13 -11.109375 C 12.5625 -10.679688 12.34375 -10.132812 12.34375 -9.46875 C 12.34375 -8.738281 12.628906 -8.171875 13.203125 -7.765625 C 13.785156 -7.367188 14.640625 -7.148438 15.765625 -7.109375 L 23.46875 -6.828125 C 31.0625 -6.597656 34.859375 -3.328125 34.859375 2.984375 C 34.859375 5.210938 34.289062 7.191406 33.15625 8.921875 C 32.03125 10.660156 30.203125 12.035156 27.671875 13.046875 C 25.140625 14.066406 21.859375 14.578125 17.828125 14.578125 Z M 17.921875 -17.703125 C 19.578125 -17.703125 20.875 -18.1875 21.8125 -19.15625 C 22.75 -20.132812 23.21875 -21.53125 23.21875 -23.34375 C 23.21875 -25.144531 22.75 -26.53125 21.8125 -27.5 C 20.875 -28.46875 19.578125 -28.953125 17.921875 -28.953125 C 16.234375 -28.953125 14.929688 -28.46875 14.015625 -27.5 C 13.109375 -26.53125 12.65625 -25.144531 12.65625 -23.34375 C 12.65625 -21.507812 13.109375 -20.109375 14.015625 -19.140625 C 14.929688 -18.179688 16.234375 -17.703125 17.921875 -17.703125 Z M 17.828125 8.3125 C 20.773438 8.3125 22.914062 7.894531 24.25 7.0625 C 25.59375 6.238281 26.265625 5.160156 26.265625 3.828125 C 26.265625 2.753906 25.921875 1.960938 25.234375 1.453125 C 24.546875 0.941406 23.457031 0.664062 21.96875 0.625 L 15.171875 0.3125 C 14.941406 0.3125 14.726562 0.300781 14.53125 0.28125 C 14.332031 0.257812 14.140625 0.25 13.953125 0.25 C 12.503906 0.25 11.398438 0.5625 10.640625 1.1875 C 9.878906 1.8125 9.5 2.671875 9.5 3.765625 C 9.5 5.222656 10.191406 6.34375 11.578125 7.125 C 12.972656 7.914062 15.054688 8.3125 17.828125 8.3125 Z M 17.828125 8.3125 "/></g></g></g></svg>