<svg xmlns="http://www.w3.org/2000/svg" xmlns:xlink="http://www.w3.org/1999/xlink" width="260" zoomAndPan="magnify" viewBox="0 0 571.5 110.999996" height="64" preserveAspectRatio="xMidYMid meet" version="1.0"><defs><g/><clipPath id="6219e75379"><path d="M 1 16.402344 L 110 16.402344 L 110 110.820312 L 1 110.820312 Z M 1 16.402344 " clip-rule="nonzero"/></clipPath></defs><g clip-path="url(#6219e75379)"><path fill="#ec6a06" d="M 66.175781 63.609375 L 44.355469 39.429688 L 70.664062 16.402344 L 6.457031 16.402344 C 3.917969 16.402344 1.859375 18.464844 1.859375 21.007812 L 1.859375 85.488281 C 1.859375 88.03125 3.917969 90.09375 6.457031 90.09375 L 15.644531 90.09375 L 15.644531 110.820312 L 36.316406 90.09375 L 105.222656 90.09375 C 107.757812 90.09375 109.816406 88.03125 109.816406 85.488281 L 109.816406 21.890625 Z M 31.71875 74.359375 L 41.484375 41.734375 L 63.734375 66.488281 Z M 31.71875 74.359375 " fill-opacity="1" fill-rule="nonzero"/></g><g fill="#201a18" fill-opacity="1"><g transform="translate(123.190576, 78.921325)"><g><path d="M 4.984375 14.015625 L 4.984375 -34.578125 L 13.671875 -34.578125 L 13.671875 -30.0625 L 14.328125 -29.9375 C 15.347656 -31.695312 16.710938 -33.019531 18.421875 -33.90625 C 20.140625 -34.789062 22.148438 -35.234375 24.453125 -35.234375 C 27.234375 -35.234375 29.660156 -34.570312 31.734375 -33.25 C 33.816406 -31.9375 35.4375 -29.9375 36.59375 -27.25 C 37.757812 -24.570312 38.34375 -21.242188 38.34375 -17.265625 C 38.34375 -13.316406 37.726562 -10.003906 36.5 -7.328125 C 35.28125 -4.660156 33.582031 -2.660156 31.40625 -1.328125 C 29.238281 -0.00390625 26.734375 0.65625 23.890625 0.65625 C 21.734375 0.65625 19.867188 0.296875 18.296875 -0.421875 C 16.734375 -1.140625 15.410156 -2.265625 14.328125 -3.796875 L 13.671875 -3.671875 L 13.671875 14.015625 Z M 21.46875 -6.703125 C 24.0625 -6.703125 26.023438 -7.546875 27.359375 -9.234375 C 28.703125 -10.929688 29.375 -13.609375 29.375 -17.265625 C 29.375 -20.929688 28.703125 -23.613281 27.359375 -25.3125 C 26.023438 -27.019531 24.0625 -27.875 21.46875 -27.875 C 19.050781 -27.875 17.128906 -26.992188 15.703125 -25.234375 C 14.285156 -23.484375 13.578125 -20.828125 13.578125 -17.265625 C 13.578125 -13.734375 14.285156 -11.085938 15.703125 -9.328125 C 17.128906 -7.578125 19.050781 -6.703125 21.46875 -6.703125 Z M 21.46875 -6.703125 "/></g></g></g><g fill="#201a18" fill-opacity="1"><g transform="translate(164.591818, 78.921325)"><g><path d="M 34.171875 -15.328125 L 11.9375 -15.328125 C 12.1875 -12.316406 13.039062 -10.125 14.5 -8.75 C 15.96875 -7.382812 17.96875 -6.703125 20.5 -6.703125 C 22.488281 -6.703125 24.097656 -7.070312 25.328125 -7.8125 C 26.566406 -8.5625 27.5625 -9.6875 28.3125 -11.1875 L 28.96875 -11.1875 L 34.734375 -7.5 C 33.609375 -5.070312 31.90625 -3.101562 29.625 -1.59375 C 27.34375 -0.09375 24.300781 0.65625 20.5 0.65625 C 16.925781 0.65625 13.835938 -0.0195312 11.234375 -1.375 C 8.628906 -2.738281 6.625 -4.757812 5.21875 -7.4375 C 3.8125 -10.125 3.109375 -13.398438 3.109375 -17.265625 C 3.109375 -21.203125 3.847656 -24.515625 5.328125 -27.203125 C 6.816406 -29.898438 8.820312 -31.910156 11.34375 -33.234375 C 13.875 -34.566406 16.71875 -35.234375 19.875 -35.234375 C 24.769531 -35.234375 28.515625 -33.9375 31.109375 -31.34375 C 33.710938 -28.757812 35.015625 -24.957031 35.015625 -19.9375 C 35.015625 -18.113281 34.953125 -16.703125 34.828125 -15.703125 Z M 26.703125 -20.9375 C 26.617188 -23.570312 26.007812 -25.488281 24.875 -26.6875 C 23.738281 -27.894531 22.070312 -28.5 19.875 -28.5 C 15.488281 -28.5 12.90625 -25.976562 12.125 -20.9375 Z M 26.703125 -20.9375 "/></g></g></g><g fill="#201a18" fill-opacity="1"><g transform="translate(202.169479, 78.921325)"><g><path d="M 4.984375 0 L 4.984375 -34.578125 L 13.421875 -34.578125 L 13.421875 -29.4375 L 14.078125 -29.3125 C 14.910156 -31.238281 16.003906 -32.648438 17.359375 -33.546875 C 18.722656 -34.441406 20.378906 -34.890625 22.328125 -34.890625 C 24.285156 -34.890625 25.773438 -34.554688 26.796875 -33.890625 L 25.328125 -26.390625 L 24.671875 -26.265625 C 24.109375 -26.492188 23.566406 -26.660156 23.046875 -26.765625 C 22.523438 -26.867188 21.882812 -26.921875 21.125 -26.921875 C 18.707031 -26.921875 16.859375 -26.066406 15.578125 -24.359375 C 14.304688 -22.660156 13.671875 -19.929688 13.671875 -16.171875 L 13.671875 0 Z M 4.984375 0 "/></g></g></g><g fill="#201a18" fill-opacity="1"><g transform="translate(229.279301, 78.921325)"><g><path d="M 16.171875 0.65625 C 13.816406 0.65625 11.65625 0.378906 9.6875 -0.171875 C 7.71875 -0.722656 6.039062 -1.484375 4.65625 -2.453125 C 3.269531 -3.429688 2.238281 -4.546875 1.5625 -5.796875 L 6.390625 -11 L 7.046875 -11 C 8.203125 -9.457031 9.5625 -8.296875 11.125 -7.515625 C 12.695312 -6.742188 14.398438 -6.359375 16.234375 -6.359375 C 17.929688 -6.359375 19.207031 -6.660156 20.0625 -7.265625 C 20.914062 -7.878906 21.34375 -8.75 21.34375 -9.875 C 21.34375 -10.75 21.035156 -11.484375 20.421875 -12.078125 C 19.804688 -12.679688 18.8125 -13.148438 17.4375 -13.484375 L 12.859375 -14.578125 C 9.429688 -15.390625 6.925781 -16.632812 5.34375 -18.3125 C 3.769531 -20 2.984375 -22.140625 2.984375 -24.734375 C 2.984375 -26.890625 3.53125 -28.757812 4.625 -30.34375 C 5.71875 -31.9375 7.257812 -33.148438 9.25 -33.984375 C 11.25 -34.816406 13.578125 -35.234375 16.234375 -35.234375 C 19.347656 -35.234375 21.925781 -34.785156 23.96875 -33.890625 C 26.019531 -32.992188 27.625 -31.789062 28.78125 -30.28125 L 24.140625 -25.265625 L 23.515625 -25.265625 C 22.546875 -26.347656 21.460938 -27.140625 20.265625 -27.640625 C 19.066406 -28.148438 17.722656 -28.40625 16.234375 -28.40625 C 12.804688 -28.40625 11.09375 -27.335938 11.09375 -25.203125 C 11.09375 -24.304688 11.410156 -23.570312 12.046875 -23 C 12.691406 -22.4375 13.816406 -21.976562 15.421875 -21.625 L 19.6875 -20.6875 C 23.195312 -19.9375 25.757812 -18.726562 27.375 -17.0625 C 29 -15.40625 29.8125 -13.175781 29.8125 -10.375 C 29.8125 -8.175781 29.265625 -6.238281 28.171875 -4.5625 C 27.085938 -2.894531 25.519531 -1.609375 23.46875 -0.703125 C 21.425781 0.203125 18.992188 0.65625 16.171875 0.65625 Z M 16.171875 0.65625 "/></g></g></g><g fill="#201a18" fill-opacity="1"><g transform="translate(261.15293, 78.921325)"><g><path d="M 20.09375 0.65625 C 16.707031 0.65625 13.734375 -0.0351562 11.171875 -1.421875 C 8.609375 -2.816406 6.625 -4.851562 5.21875 -7.53125 C 3.8125 -10.21875 3.109375 -13.460938 3.109375 -17.265625 C 3.109375 -21.078125 3.8125 -24.328125 5.21875 -27.015625 C 6.625 -29.710938 8.609375 -31.753906 11.171875 -33.140625 C 13.734375 -34.535156 16.707031 -35.234375 20.09375 -35.234375 C 23.476562 -35.234375 26.453125 -34.535156 29.015625 -33.140625 C 31.578125 -31.753906 33.566406 -29.710938 34.984375 -27.015625 C 36.410156 -24.328125 37.125 -21.078125 37.125 -17.265625 C 37.125 -13.460938 36.410156 -10.21875 34.984375 -7.53125 C 33.566406 -4.851562 31.578125 -2.816406 29.015625 -1.421875 C 26.453125 -0.0351562 23.476562 0.65625 20.09375 0.65625 Z M 20.09375 -6.703125 C 25.46875 -6.703125 28.15625 -10.222656 28.15625 -17.265625 C 28.15625 -20.929688 27.460938 -23.613281 26.078125 -25.3125 C 24.703125 -27.019531 22.707031 -27.875 20.09375 -27.875 C 14.71875 -27.875 12.03125 -24.335938 12.03125 -17.265625 C 12.03125 -10.222656 14.71875 -6.703125 20.09375 -6.703125 Z M 20.09375 -6.703125 "/></g></g></g><g fill="#201a18" fill-opacity="1"><g transform="translate(301.33188, 78.921325)"><g><path d="M 4.984375 0 L 4.984375 -34.578125 L 13.328125 -34.578125 L 13.328125 -29.5 L 13.984375 -29.34375 C 16.128906 -33.269531 19.617188 -35.234375 24.453125 -35.234375 C 28.441406 -35.234375 31.367188 -34.144531 33.234375 -31.96875 C 35.109375 -29.800781 36.046875 -26.640625 36.046875 -22.484375 L 36.046875 0 L 27.375 0 L 27.375 -21.40625 C 27.375 -23.707031 26.910156 -25.363281 25.984375 -26.375 C 25.066406 -27.394531 23.59375 -27.90625 21.5625 -27.90625 C 19.082031 -27.90625 17.144531 -27.097656 15.75 -25.484375 C 14.363281 -23.878906 13.671875 -21.351562 13.671875 -17.90625 L 13.671875 0 Z M 4.984375 0 "/></g></g></g><g fill="#201a18" fill-opacity="1"><g transform="translate(341.824238, 78.921325)"><g><path d="M 13.484375 0.65625 C 11.265625 0.65625 9.335938 0.25 7.703125 -0.5625 C 6.078125 -1.375 4.828125 -2.566406 3.953125 -4.140625 C 3.078125 -5.722656 2.640625 -7.625 2.640625 -9.84375 C 2.640625 -11.894531 3.078125 -13.613281 3.953125 -15 C 4.828125 -16.382812 6.179688 -17.519531 8.015625 -18.40625 C 9.859375 -19.300781 12.265625 -19.988281 15.234375 -20.46875 C 17.304688 -20.800781 18.878906 -21.164062 19.953125 -21.5625 C 21.023438 -21.957031 21.75 -22.40625 22.125 -22.90625 C 22.507812 -23.414062 22.703125 -24.054688 22.703125 -24.828125 C 22.703125 -25.929688 22.3125 -26.773438 21.53125 -27.359375 C 20.757812 -27.953125 19.476562 -28.25 17.6875 -28.25 C 15.757812 -28.25 13.925781 -27.816406 12.1875 -26.953125 C 10.457031 -26.097656 8.957031 -24.972656 7.6875 -23.578125 L 7.046875 -23.578125 L 3.421875 -29.0625 C 5.171875 -31 7.3125 -32.507812 9.84375 -33.59375 C 12.375 -34.6875 15.132812 -35.234375 18.125 -35.234375 C 22.695312 -35.234375 26.003906 -34.257812 28.046875 -32.3125 C 30.097656 -30.375 31.125 -27.617188 31.125 -24.046875 L 31.125 -9.03125 C 31.125 -7.476562 31.804688 -6.703125 33.171875 -6.703125 C 33.691406 -6.703125 34.203125 -6.796875 34.703125 -6.984375 L 35.140625 -6.859375 L 35.765625 -0.8125 C 35.285156 -0.5 34.617188 -0.242188 33.765625 -0.046875 C 32.910156 0.148438 31.96875 0.25 30.9375 0.25 C 28.875 0.25 27.257812 -0.144531 26.09375 -0.9375 C 24.9375 -1.726562 24.109375 -2.972656 23.609375 -4.671875 L 22.953125 -4.734375 C 21.253906 -1.140625 18.097656 0.65625 13.484375 0.65625 Z M 16.234375 -5.828125 C 18.242188 -5.828125 19.847656 -6.5 21.046875 -7.84375 C 22.253906 -9.195312 22.859375 -11.078125 22.859375 -13.484375 L 22.859375 -16.984375 L 22.265625 -17.109375 C 21.734375 -16.691406 21.046875 -16.34375 20.203125 -16.0625 C 19.359375 -15.78125 18.140625 -15.503906 16.546875 -15.234375 C 14.671875 -14.921875 13.316406 -14.382812 12.484375 -13.625 C 11.660156 -12.863281 11.25 -11.78125 11.25 -10.375 C 11.25 -8.894531 11.6875 -7.765625 12.5625 -6.984375 C 13.445312 -6.210938 14.671875 -5.828125 16.234375 -5.828125 Z M 16.234375 -5.828125 "/></g></g></g><g fill="#201a18" fill-opacity="1"><g transform="translate(378.27364, 78.921325)"><g><path d="M 14.359375 0.65625 C 11.242188 0.65625 8.863281 -0.179688 7.21875 -1.859375 C 5.582031 -3.546875 4.765625 -6.101562 4.765625 -9.53125 L 4.765625 -48.46875 L 13.453125 -48.46875 L 13.453125 -9.875 C 13.453125 -7.757812 14.328125 -6.703125 16.078125 -6.703125 C 16.578125 -6.703125 17.113281 -6.785156 17.6875 -6.953125 L 18.125 -6.828125 L 18.90625 -0.15625 C 18.425781 0.09375 17.785156 0.289062 16.984375 0.4375 C 16.191406 0.582031 15.316406 0.65625 14.359375 0.65625 Z M 14.359375 0.65625 "/></g></g></g><g fill="#201a18" fill-opacity="1"><g transform="translate(398.143729, 78.921325)"><g/></g></g><g fill="#201a18" fill-opacity="1"><g transform="translate(413.281341, 78.921325)"><g><path d="M 24.171875 0.65625 C 19.765625 0.65625 16.484375 -0.992188 14.328125 -4.296875 L 13.671875 -4.171875 L 13.671875 0 L 4.984375 0 L 4.984375 -48.46875 L 13.671875 -48.46875 L 13.671875 -30.5 L 14.328125 -30.375 C 15.515625 -32.03125 16.914062 -33.253906 18.53125 -34.046875 C 20.15625 -34.835938 22.097656 -35.234375 24.359375 -35.234375 C 27.160156 -35.234375 29.601562 -34.570312 31.6875 -33.25 C 33.78125 -31.9375 35.410156 -29.9375 36.578125 -27.25 C 37.753906 -24.570312 38.34375 -21.242188 38.34375 -17.265625 C 38.34375 -13.335938 37.734375 -10.03125 36.515625 -7.34375 C 35.304688 -4.664062 33.632812 -2.660156 31.5 -1.328125 C 29.375 -0.00390625 26.929688 0.65625 24.171875 0.65625 Z M 21.53125 -6.703125 C 24.082031 -6.703125 26.023438 -7.550781 27.359375 -9.25 C 28.703125 -10.957031 29.375 -13.628906 29.375 -17.265625 C 29.375 -20.929688 28.703125 -23.613281 27.359375 -25.3125 C 26.023438 -27.019531 24.082031 -27.875 21.53125 -27.875 C 19.09375 -27.875 17.15625 -26.992188 15.71875 -25.234375 C 14.289062 -23.484375 13.578125 -20.828125 13.578125 -17.265625 C 13.578125 -13.710938 14.289062 -11.0625 15.71875 -9.3125 C 17.15625 -7.570312 19.09375 -6.703125 21.53125 -6.703125 Z M 21.53125 -6.703125 "/></g></g></g><g fill="#201a18" fill-opacity="1"><g transform="translate(454.682572, 78.921325)"><g><path d="M 14.359375 0.65625 C 11.242188 0.65625 8.863281 -0.179688 7.21875 -1.859375 C 5.582031 -3.546875 4.765625 -6.101562 4.765625 -9.53125 L 4.765625 -48.46875 L 13.453125 -48.46875 L 13.453125 -9.875 C 13.453125 -7.757812 14.328125 -6.703125 16.078125 -6.703125 C 16.578125 -6.703125 17.113281 -6.785156 17.6875 -6.953125 L 18.125 -6.828125 L 18.90625 -0.15625 C 18.425781 0.09375 17.785156 0.289062 16.984375 0.4375 C 16.191406 0.582031 15.316406 0.65625 14.359375 0.65625 Z M 14.359375 0.65625 "/></g></g></g><g fill="#201a18" fill-opacity="1"><g transform="translate(474.552661, 78.921325)"><g><path d="M 20.09375 0.65625 C 16.707031 0.65625 13.734375 -0.0351562 11.171875 -1.421875 C 8.609375 -2.816406 6.625 -4.851562 5.21875 -7.53125 C 3.8125 -10.21875 3.109375 -13.460938 3.109375 -17.265625 C 3.109375 -21.078125 3.8125 -24.328125 5.21875 -27.015625 C 6.625 -29.710938 8.609375 -31.753906 11.171875 -33.140625 C 13.734375 -34.535156 16.707031 -35.234375 20.09375 -35.234375 C 23.476562 -35.234375 26.453125 -34.535156 29.015625 -33.140625 C 31.578125 -31.753906 33.566406 -29.710938 34.984375 -27.015625 C 36.410156 -24.328125 37.125 -21.078125 37.125 -17.265625 C 37.125 -13.460938 36.410156 -10.21875 34.984375 -7.53125 C 33.566406 -4.851562 31.578125 -2.816406 29.015625 -1.421875 C 26.453125 -0.0351562 23.476562 0.65625 20.09375 0.65625 Z M 20.09375 -6.703125 C 25.46875 -6.703125 28.15625 -10.222656 28.15625 -17.265625 C 28.15625 -20.929688 27.460938 -23.613281 26.078125 -25.3125 C 24.703125 -27.019531 22.707031 -27.875 20.09375 -27.875 C 14.71875 -27.875 12.03125 -24.335938 12.03125 -17.265625 C 12.03125 -10.222656 14.71875 -6.703125 20.09375 -6.703125 Z M 20.09375 -6.703125 "/></g></g></g><g fill="#201a18" fill-opacity="1"><g transform="translate(514.731611, 78.921325)"><g><path d="M 17.9375 14.671875 C 12.226562 14.671875 8.015625 13.832031 5.296875 12.15625 C 2.578125 10.488281 1.21875 8.160156 1.21875 5.171875 C 1.21875 3.347656 1.796875 1.859375 2.953125 0.703125 C 4.117188 -0.453125 5.789062 -1.226562 7.96875 -1.625 L 7.96875 -2.28125 C 6.789062 -3 5.945312 -3.789062 5.4375 -4.65625 C 4.925781 -5.519531 4.671875 -6.53125 4.671875 -7.6875 C 4.671875 -10.457031 6.476562 -12.328125 10.09375 -13.296875 L 10.09375 -13.953125 C 8.226562 -15.015625 6.828125 -16.332031 5.890625 -17.90625 C 4.953125 -19.488281 4.484375 -21.398438 4.484375 -23.640625 C 4.484375 -25.929688 5.007812 -27.953125 6.0625 -29.703125 C 7.125 -31.453125 8.671875 -32.8125 10.703125 -33.78125 C 12.742188 -34.75 15.1875 -35.234375 18.03125 -35.234375 C 20.914062 -35.234375 23.210938 -34.734375 24.921875 -33.734375 C 25.984375 -35.273438 26.597656 -37.0625 26.765625 -39.09375 L 27.4375 -39.5 L 33.671875 -37.96875 C 33.484375 -36.3125 33 -34.925781 32.21875 -33.8125 C 31.445312 -32.695312 30.25 -31.695312 28.625 -30.8125 L 28.625 -30.125 C 30.5625 -28.414062 31.53125 -26.023438 31.53125 -22.953125 C 31.53125 -20.816406 31 -18.898438 29.9375 -17.203125 C 28.875 -15.515625 27.320312 -14.175781 25.28125 -13.1875 C 23.25 -12.207031 20.832031 -11.71875 18.03125 -11.71875 L 16.703125 -11.75 C 15.867188 -11.789062 15.285156 -11.8125 14.953125 -11.8125 C 14.160156 -11.8125 13.539062 -11.597656 13.09375 -11.171875 C 12.644531 -10.742188 12.421875 -10.195312 12.421875 -9.53125 C 12.421875 -8.800781 12.710938 -8.226562 13.296875 -7.8125 C 13.878906 -7.40625 14.734375 -7.179688 15.859375 -7.140625 L 23.609375 -6.859375 C 31.253906 -6.628906 35.078125 -3.335938 35.078125 3.015625 C 35.078125 5.242188 34.503906 7.226562 33.359375 8.96875 C 32.222656 10.71875 30.378906 12.101562 27.828125 13.125 C 25.285156 14.15625 21.988281 14.671875 17.9375 14.671875 Z M 18.03125 -17.8125 C 19.695312 -17.8125 21 -18.300781 21.9375 -19.28125 C 22.882812 -20.257812 23.359375 -21.660156 23.359375 -23.484375 C 23.359375 -25.296875 22.882812 -26.6875 21.9375 -27.65625 C 21 -28.632812 19.695312 -29.125 18.03125 -29.125 C 16.332031 -29.125 15.023438 -28.632812 14.109375 -27.65625 C 13.191406 -26.6875 12.734375 -25.296875 12.734375 -23.484375 C 12.734375 -21.640625 13.191406 -20.234375 14.109375 -19.265625 C 15.023438 -18.296875 16.332031 -17.8125 18.03125 -17.8125 Z M 17.9375 8.375 C 20.90625 8.375 23.0625 7.953125 24.40625 7.109375 C 25.75 6.273438 26.421875 5.191406 26.421875 3.859375 C 26.421875 2.765625 26.078125 1.960938 25.390625 1.453125 C 24.703125 0.941406 23.601562 0.664062 22.09375 0.625 L 15.265625 0.3125 C 15.035156 0.3125 14.820312 0.300781 14.625 0.28125 C 14.425781 0.257812 14.234375 0.25 14.046875 0.25 C 12.578125 0.25 11.460938 0.5625 10.703125 1.1875 C 9.941406 1.8125 9.5625 2.679688 9.5625 3.796875 C 9.5625 5.253906 10.257812 6.378906 11.65625 7.171875 C 13.0625 7.972656 15.15625 8.375 17.9375 8.375 Z M 17.9375 8.375 "/></g></g></g></svg>